<svg width="21" height="22" viewBox="0 0 21 22" fill="none" xmlns="http://www.w3.org/2000/svg">
<path d="M2.47689 8.83988C2.51712 8.33868 2.74464 7.87103 3.11417 7.53004C3.48369 7.18906 3.96808 6.99977 4.47089 6.99988H16.5289C17.0317 6.99977 17.5161 7.18906 17.8856 7.53004C18.2551 7.87103 18.4827 8.33868 18.5229 8.83988L19.3259 18.8399C19.348 19.1151 19.3129 19.3919 19.2227 19.6528C19.1326 19.9138 18.9894 20.1532 18.8022 20.3561C18.615 20.559 18.3878 20.721 18.1349 20.8318C17.882 20.9426 17.609 20.9998 17.3329 20.9999H3.66689C3.39081 20.9998 3.11774 20.9426 2.86487 20.8318C2.612 20.721 2.3848 20.559 2.19759 20.3561C2.01037 20.1532 1.86719 19.9138 1.77706 19.6528C1.68693 19.3919 1.6518 19.1151 1.67389 18.8399L2.47689 8.83988V8.83988Z" stroke="currentColor" stroke-width="1.4" stroke-linecap="round" stroke-linejoin="round"/>
<path d="M14.5001 10V5C14.5001 3.93913 14.0787 2.92172 13.3285 2.17157C12.5784 1.42143 11.561 1 10.5001 1C9.43924 1 8.42182 1.42143 7.67168 2.17157C6.92153 2.92172 6.50011 3.93913 6.50011 5V10" stroke="currentColor" stroke-width="1.4" stroke-linecap="round" stroke-linejoin="round"/>
</svg>
