<svg width="21" height="20" viewBox="0 0 21 20" fill="none" xmlns="http://www.w3.org/2000/svg">
<path d="M7.16667 6.86667H7.36667V6.66667V2.22222V2.02222H7.16667H2.72222H2.52222V2.22222V6.66667V6.86667H2.72222H7.16667ZM18.2778 6.86667H18.4778V6.66667V2.22222V2.02222H18.2778H13.8333H13.6333V2.22222V6.66667V6.86667H13.8333H18.2778ZM7.16667 17.9778H7.36667V17.7778V13.3333V13.1333H7.16667H2.72222H2.52222V13.3333V17.7778V17.9778H2.72222H7.16667ZM1.61111 0.2H8.27778C8.51942 0.2 8.75116 0.295992 8.92203 0.466858C9.0929 0.637725 9.18889 0.86947 9.18889 1.11111V7.77778C9.18889 8.01942 9.0929 8.25116 8.92203 8.42203C8.75116 8.5929 8.51942 8.68889 8.27778 8.68889H1.61111C1.36947 8.68889 1.13772 8.5929 0.966858 8.42203C0.795992 8.25116 0.7 8.01942 0.7 7.77778V1.11111C0.7 0.869469 0.795992 0.637725 0.966858 0.466858C1.13772 0.295992 1.36947 0.2 1.61111 0.2ZM12.7222 0.2H19.3889C19.6305 0.2 19.8623 0.295992 20.0331 0.466858C20.204 0.637724 20.3 0.869469 20.3 1.11111V7.77778C20.3 8.01942 20.204 8.25116 20.0331 8.42203C19.8623 8.5929 19.6305 8.68889 19.3889 8.68889H12.7222C12.4806 8.68889 12.2488 8.5929 12.078 8.42203C11.9071 8.25116 11.8111 8.01942 11.8111 7.77778V1.11111C11.8111 0.86947 11.9071 0.637725 12.078 0.466858C12.2488 0.295992 12.4806 0.2 12.7222 0.2ZM1.61111 11.3111H8.27778C8.51942 11.3111 8.75116 11.4071 8.92203 11.578C9.0929 11.7488 9.18889 11.9806 9.18889 12.2222V18.8889C9.18889 19.1305 9.0929 19.3623 8.92203 19.5331C8.75116 19.704 8.51942 19.8 8.27778 19.8H1.61111C1.36947 19.8 1.13772 19.704 0.966858 19.5331C0.795992 19.3623 0.7 19.1305 0.7 18.8889V12.2222C0.7 11.9806 0.795992 11.7488 0.966858 11.578C1.13772 11.4071 1.36947 11.3111 1.61111 11.3111ZM11.8111 15.5556C11.8111 13.2149 13.7149 11.3111 16.0556 11.3111C18.3962 11.3111 20.3 13.2149 20.3 15.5556C20.3 17.8962 18.3962 19.8 16.0556 19.8C13.7149 19.8 11.8111 17.8962 11.8111 15.5556ZM13.6333 15.5556C13.6333 16.8916 14.7195 17.9778 16.0556 17.9778C17.3916 17.9778 18.4778 16.8916 18.4778 15.5556C18.4778 14.2195 17.3916 13.1333 16.0556 13.1333C14.7195 13.1333 13.6333 14.2195 13.6333 15.5556Z" fill="currentColor" stroke="white" stroke-width="0.4"/>
</svg>
