<svg width="18" height="16" viewBox="0 0 18 16" fill="none" xmlns="http://www.w3.org/2000/svg">
<path d="M16.0334 7.99999L16.9608 6.47175C17.0722 6.28789 17.1025 6.06934 17.045 5.86417C16.9875 5.65899 16.8469 5.48399 16.6542 5.37764L15.0497 4.49338V2.73126C15.0497 2.51883 14.9612 2.3151 14.8037 2.16489C14.6461 2.01468 14.4324 1.9303 14.2097 1.9303H12.3624L11.4359 0.40126C11.324 0.217773 11.1408 0.0836828 10.926 0.0280117C10.8194 0.000471279 10.7082 -0.00663013 10.5988 0.00711902C10.4893 0.0208682 10.3838 0.0551945 10.2884 0.108108L8.68392 0.99237L7.07945 0.107307C6.88652 0.00109746 6.65723 -0.0276848 6.44204 0.0272915C6.22684 0.0822679 6.04337 0.2165 5.93197 0.400459L5.00457 1.9303H3.15734C2.93455 1.9303 2.72088 2.01468 2.56334 2.16489C2.40581 2.3151 2.3173 2.51883 2.3173 2.73126V4.49258L0.71284 5.37684C0.617104 5.42935 0.533192 5.49937 0.465925 5.58289C0.398658 5.66642 0.349363 5.76179 0.320872 5.86353C0.29238 5.96528 0.285254 6.07139 0.299902 6.17576C0.31455 6.28014 0.350684 6.38073 0.406228 6.47175L1.33363 7.99999L0.406228 9.52822C0.295334 9.71227 0.265247 9.93064 0.322526 10.1357C0.379805 10.3409 0.519804 10.5161 0.712 10.6231L2.31646 11.5074V13.2687C2.31646 13.4811 2.40497 13.6849 2.5625 13.8351C2.72004 13.9853 2.93371 14.0697 3.1565 14.0697H5.00457L5.93197 15.5995C6.00634 15.7207 6.11252 15.8214 6.24007 15.8916C6.36763 15.9618 6.51215 15.9992 6.65944 16C6.8056 16 6.95093 15.9632 7.08029 15.8919L8.68308 15.0076L10.2875 15.8919C10.4804 15.9979 10.7096 16.0267 10.9247 15.9719C11.1398 15.9171 11.3233 15.7832 11.435 15.5995L12.3616 14.0697H14.2088C14.4316 14.0697 14.6453 13.9853 14.8028 13.8351C14.9603 13.6849 15.0489 13.4811 15.0489 13.2687V11.5074L16.6533 10.6231C16.7489 10.5705 16.8326 10.5004 16.8998 10.4168C16.9669 10.3333 17.0161 10.238 17.0446 10.1363C17.0731 10.0346 17.0803 9.92854 17.0657 9.82421C17.0512 9.71988 17.0152 9.6193 16.9599 9.52822L16.0334 7.99999ZM6.58299 3.98717C6.91729 3.98727 7.23785 4.114 7.47416 4.33946C7.71046 4.56493 7.84315 4.87066 7.84304 5.18941C7.84293 5.50816 7.71003 5.81381 7.47356 6.03913C7.2371 6.26444 6.91645 6.39096 6.58215 6.39086C6.24786 6.39075 5.9273 6.26402 5.69099 6.03856C5.45468 5.8131 5.32199 5.50736 5.3221 5.18861C5.32222 4.86986 5.45512 4.56421 5.69158 4.3389C5.92805 4.11358 6.2487 3.98706 6.58299 3.98717ZM6.835 11.6764L5.49095 10.7161L10.5312 4.30835L11.8752 5.26871L6.835 11.6764ZM10.7832 11.9968C10.6176 11.9967 10.4537 11.9656 10.3008 11.9052C10.1479 11.8447 10.009 11.7561 9.892 11.6445C9.77499 11.5329 9.68219 11.4003 9.6189 11.2545C9.5556 11.1087 9.52306 10.9524 9.52311 10.7945C9.52317 10.6367 9.55582 10.4804 9.61922 10.3347C9.68261 10.1889 9.77551 10.0564 9.89259 9.94483C10.0097 9.83327 10.1487 9.74478 10.3016 9.68443C10.4546 9.62408 10.6185 9.59305 10.784 9.5931C11.1183 9.59321 11.4389 9.71993 11.6752 9.9454C11.9115 10.1709 12.0442 10.4766 12.0441 10.7953C12.0439 11.1141 11.911 11.4197 11.6746 11.6451C11.4381 11.8704 11.1175 11.9969 10.7832 11.9968Z" fill="white"/>
</svg>
