<svg width="64" height="50" viewBox="0 0 64 50" fill="none" xmlns="http://www.w3.org/2000/svg">
<path d="M30.4107 15.1013C31.6301 15.1013 32.7966 15.3311 33.8703 15.7504L36.3856 11.3315C36.1694 11.2317 35.9505 11.1371 35.7288 11.0478C35.6788 11.0276 35.6287 11.0078 35.5785 10.9881L35.4948 10.9557C35.4434 10.936 35.3918 10.9166 35.3402 10.8975L34.8235 5.91878C34.7755 5.45632 34.391 5.10522 33.9325 5.10522H26.5984C26.1399 5.10522 25.7554 5.45632 25.7074 5.91878L25.1906 10.8975C24.9153 10.9994 24.6438 11.1094 24.3764 11.2272L26.9511 15.7504C28.0248 15.3311 29.1913 15.1013 30.4107 15.1013Z" fill="currentColor"/>
<path d="M20.6602 13.5829C20.9785 13.3072 21.3085 13.045 21.6491 12.797L24.248 17.3626C22.4748 18.8615 21.2409 20.9946 20.8849 23.4183H15.5493C15.5574 23.3404 15.566 23.2628 15.5752 23.1853L15.5898 23.067L15.5979 23.0042L15.6079 22.9286C15.6296 22.7696 15.6537 22.6113 15.6802 22.4538L11.9912 19.7345C11.6203 19.4611 11.5128 18.9478 11.742 18.5451L15.409 12.103C15.6383 11.7002 16.1304 11.538 16.5493 11.727L20.6602 13.5829Z" fill="currentColor"/>
<path d="M39.9365 23.4183C39.5805 20.9946 38.3466 18.8615 36.5735 17.3626L39.0863 12.9484C39.2144 13.045 39.3409 13.1437 39.4658 13.2444L39.5094 13.2797L39.5812 13.3384C39.6346 13.3823 39.6876 13.4266 39.7403 13.4712L39.7964 13.519L39.8414 13.5575L44.3257 11.5332C44.7446 11.3442 45.2367 11.5064 45.466 11.9092L49.1329 18.3513C49.3622 18.754 49.2547 19.2673 48.8838 19.5408L44.8596 22.5071C44.9091 22.8078 44.9499 23.1117 44.9815 23.4183H39.9365Z" fill="currentColor"/>
<path d="M39.8918 26.5988C39.4768 28.9559 38.2284 31.0201 36.4667 32.4668L39.0794 37.0567C39.1714 36.9873 39.2626 36.9169 39.353 36.8455C39.4108 36.7999 39.4682 36.7538 39.5252 36.7074C39.5702 36.6706 39.615 36.6337 39.6596 36.5965L44.576 38.8157C44.9949 39.0047 45.4869 38.8425 45.7161 38.4397L49.3832 31.9976C49.6124 31.5949 49.5049 31.0816 49.134 30.8082L44.8346 27.639C44.8947 27.2961 44.9431 26.9493 44.9798 26.5988H39.8918Z" fill="currentColor"/>
<path d="M27.0806 34.0393C28.1184 34.4271 29.2402 34.639 30.4107 34.639C31.5813 34.639 32.703 34.4271 33.7408 34.0393L36.3779 38.672C36.1982 38.7548 36.0166 38.834 35.8332 38.9096C35.6704 38.9767 35.506 39.0411 35.3402 39.1024L34.8235 44.081C34.7755 44.5436 34.391 44.8947 33.9325 44.8947H26.5984C26.1399 44.8947 25.7554 44.5436 25.7074 44.081L25.1906 39.1024C24.918 39.0015 24.6491 38.8927 24.3842 38.7762L27.0806 34.0393Z" fill="currentColor"/>
<path d="M24.3548 32.4668C22.5931 31.0201 21.3445 28.956 20.9296 26.5988H15.5511C15.5896 26.9673 15.6414 27.3319 15.7056 27.6919L11.7411 30.6144C11.3701 30.8878 11.2626 31.4011 11.4918 31.8039L15.1588 38.2459C15.3881 38.6487 15.8801 38.8109 16.299 38.6219L20.8414 36.5715C21.1055 36.7929 21.3771 37.0052 21.656 37.2079L24.3548 32.4668Z" fill="currentColor"/>
<path d="M30.4107 30.5497C33.5033 30.5497 36.0104 28.0069 36.0104 24.8701C36.0104 21.7334 33.5033 19.1906 30.4107 19.1906C27.3181 19.1906 24.811 21.7334 24.811 24.8701C24.811 28.0069 27.3181 30.5497 30.4107 30.5497Z" fill="currentColor"/>
</svg>
