<svg width="29" height="28" viewBox="0 0 29 28" fill="none" xmlns="http://www.w3.org/2000/svg">
<path d="M14.5 17.4827C12.567 17.4827 11 19.0497 11 20.9827V27.9827H18V20.9827C18 19.0497 16.433 17.4827 14.5 17.4827Z" fill="currentColor"/>
<path d="M20.3334 20.9826V27.9826H25C26.933 27.9826 28.5 26.4156 28.5 24.4826V13.8414C28.5003 13.2353 28.2647 12.6529 27.8431 12.2174L17.9289 1.49921C16.1795 -0.39352 13.227 -0.509731 11.3343 1.23961C11.2444 1.32274 11.1578 1.40931 11.0747 1.49921L1.17785 12.2139C0.743524 12.6512 0.499836 13.2426 0.5 13.8589V24.4826C0.5 26.4156 2.06702 27.9826 4 27.9826H8.66665V20.9826C8.68847 17.8013 11.257 15.2034 14.3581 15.1286C17.563 15.0513 20.3089 17.6934 20.3334 20.9826Z" fill="currentColor"/>
<path d="M14.5 17.4827C12.567 17.4827 11 19.0497 11 20.9827V27.9827H18V20.9827C18 19.0497 16.433 17.4827 14.5 17.4827Z" fill="currentColor"/>
</svg>
