<svg width="15" height="18" viewBox="0 0 15 18" fill="none" xmlns="http://www.w3.org/2000/svg">
<path d="M13.3986 7.07143C13.3986 5.53696 12.789 4.06534 11.704 2.98031C10.619 1.89528 9.14736 1.28571 7.61289 1.28571C6.07843 1.28571 4.60681 1.89528 3.52178 2.98031C2.43674 4.06534 1.82718 5.53696 1.82718 7.07143C1.82718 9.44486 3.72618 12.5383 7.61289 16.2437C11.4996 12.5383 13.3986 9.44486 13.3986 7.07143ZM7.61289 18C2.89818 13.7147 0.541466 10.071 0.541466 7.07143C0.541466 5.19597 1.28649 3.39732 2.61264 2.07117C3.93879 0.745024 5.73743 0 7.61289 0C9.48835 0 11.287 0.745024 12.6131 2.07117C13.9393 3.39732 14.6843 5.19597 14.6843 7.07143C14.6843 10.071 12.3276 13.7147 7.61289 18Z" fill="url(#paint0_linear_1_129)"/>
<path d="M7.61305 9.00016C8.12454 9.00016 8.61508 8.79697 8.97676 8.43529C9.33843 8.07361 9.54162 7.58307 9.54162 7.07159C9.54162 6.5601 9.33843 6.06956 8.97676 5.70788C8.61508 5.3462 8.12454 5.14301 7.61305 5.14301C7.10156 5.14301 6.61102 5.3462 6.24935 5.70788C5.88767 6.06956 5.68448 6.5601 5.68448 7.07159C5.68448 7.58307 5.88767 8.07361 6.24935 8.43529C6.61102 8.79697 7.10156 9.00016 7.61305 9.00016ZM7.61305 10.2859C6.76057 10.2859 5.943 9.94722 5.34021 9.34443C4.73741 8.74163 4.39877 7.92407 4.39877 7.07159C4.39877 6.2191 4.73741 5.40154 5.34021 4.79874C5.943 4.19595 6.76057 3.8573 7.61305 3.8573C8.46553 3.8573 9.2831 4.19595 9.88589 4.79874C10.4887 5.40154 10.8273 6.2191 10.8273 7.07159C10.8273 7.92407 10.4887 8.74163 9.88589 9.34443C9.2831 9.94722 8.46553 10.2859 7.61305 10.2859Z" fill="url(#paint1_linear_1_129)"/>
<defs>
<linearGradient id="paint0_linear_1_129" x1="7.61289" y1="0" x2="7.61289" y2="18" gradientUnits="userSpaceOnUse">
<stop stop-color="#D7176C"/>
<stop offset="1" stop-color="#95267C"/>
</linearGradient>
<linearGradient id="paint1_linear_1_129" x1="7.61305" y1="3.8573" x2="7.61305" y2="10.2859" gradientUnits="userSpaceOnUse">
<stop stop-color="#D7176C"/>
<stop offset="1" stop-color="#95267C"/>
</linearGradient>
</defs>
</svg>
