<svg xmlns="http://www.w3.org/2000/svg" enable-background="new 0 0 1024 1024" viewBox="0 0 1024 1024" id="Order">
  <path d="M537.2,918.7c-14.1-7.4-28.2-14.9-42.3-22.3c-33.9-17.9-67.7-35.8-101.6-53.7
				c-41.1-21.7-82.3-43.4-123.4-65.2c-35.4-18.7-70.9-37.4-106.3-56.1c-17.2-9.1-34.3-18.5-51.7-27.3c-0.2-0.1-0.5-0.3-0.7-0.4
				c8.3,14.4,16.5,28.8,24.8,43.2c0-15,0-29.9,0-44.9c0-35.7,0-71.5,0-107.2c0-43.2,0-86.4,0-129.7c0-37.5,0-75,0-112.6
				c0-18.2,0.3-36.4,0-54.6c0-0.2,0-0.5,0-0.7c-25.1,14.4-50.2,28.8-75.2,43.2c14.1,7.5,28.2,14.9,42.3,22.4
				c33.9,17.9,67.7,35.8,101.6,53.7c41.1,21.7,82.3,43.5,123.4,65.2c35.4,18.7,70.9,37.5,106.3,56.2c17.2,9.1,34.3,18.5,51.7,27.3
				c0.2,0.1,0.5,0.3,0.7,0.4c-8.3-14.4-16.5-28.8-24.8-43.2c0,14.9,0,29.9,0,44.8c0,35.7,0,71.4,0,107.1c0,43.2,0,86.4,0,129.6
				c0,37.5,0,75,0,112.5c0,18.2-0.2,36.4,0,54.6c0,0.2,0,0.5,0,0.7c0,12.8,5.6,26.3,14.6,35.4c8.7,8.7,22.9,15.2,35.4,14.6
				c12.9-0.6,26.3-4.8,35.4-14.6c9-9.8,14.6-21.8,14.6-35.4c0-14.9,0-29.9,0-44.8c0-35.7,0-71.4,0-107.1c0-43.2,0-86.4,0-129.6
				c0-37.5,0-75,0-112.5c0-18.2,0.2-36.4,0-54.6c0-0.2,0-0.5,0-0.7c0-17-9.4-35-24.8-43.2c-14.1-7.5-28.2-14.9-42.3-22.4
				c-33.9-17.9-67.7-35.8-101.6-53.7c-41.1-21.7-82.3-43.5-123.4-65.2c-35.4-18.7-70.9-37.5-106.3-56.2
				c-17.2-9.1-34.4-18.4-51.7-27.3c-0.2-0.1-0.5-0.3-0.7-0.4c-16-8.5-34.5-9.3-50.5,0c-15.2,8.9-24.8,25.5-24.8,43.2
				c0,15,0,29.9,0,44.9c0,35.7,0,71.5,0,107.2c0,43.2,0,86.4,0,129.7c0,37.5,0,75,0,112.6c0,18.2-0.2,36.4,0,54.6c0,0.2,0,0.5,0,0.7
				c0,17,9.4,35.1,24.8,43.2c14.1,7.4,28.2,14.9,42.3,22.3c33.9,17.9,67.7,35.8,101.6,53.7c41.1,21.7,82.3,43.4,123.4,65.2
				c35.4,18.7,70.9,37.4,106.3,56.1c17.2,9.1,34.4,18.4,51.7,27.3c0.2,0.1,0.5,0.3,0.7,0.4c11.8,6.2,25.5,8.6,38.5,5
				c11.6-3.2,24.2-12.2,29.9-23c6.1-11.6,9.2-25.7,5-38.5C556.3,936.5,548.8,924.8,537.2,918.7z" fill="#ffffff" class="color000000 svgShape"></path>
  <path d="M912.9,693.7c-14.1,7.4-28.2,14.9-42.3,22.3c-33.9,17.9-67.7,35.8-101.6,53.7
				c-41.1,21.7-82.3,43.4-123.4,65.2c-35.4,18.7-70.9,37.4-106.3,56.1c-17.2,9.1-34.6,17.9-51.7,27.3c-0.2,0.1-0.5,0.3-0.7,0.4
				c25.1,14.4,50.2,28.8,75.2,43.2c0-14.9,0-29.9,0-44.8c0-35.7,0-71.4,0-107.1c0-43.2,0-86.4,0-129.6c0-37.5,0-75,0-112.5
				c0-18.2,0.3-36.4,0-54.6c0-0.2,0-0.5,0-0.7c-8.3,14.4-16.5,28.8-24.8,43.2c14.1-7.5,28.2-14.9,42.3-22.4
				c33.9-17.9,67.7-35.8,101.6-53.7c41.1-21.7,82.3-43.5,123.4-65.2c35.4-18.7,70.9-37.5,106.3-56.2c17.2-9.1,34.6-18,51.7-27.3
				c0.2-0.1,0.5-0.3,0.7-0.4c-25.1-14.4-50.2-28.8-75.2-43.2c0,15,0,29.9,0,44.9c0,35.7,0,71.5,0,107.2c0,43.2,0,86.4,0,129.7
				c0,37.5,0,75,0,112.6c0,18.2-0.2,36.4,0,54.6c0,0.2,0,0.5,0,0.7c0,12.8,5.6,26.3,14.6,35.4c8.7,8.7,22.9,15.2,35.4,14.6
				c12.9-0.6,26.3-4.8,35.4-14.6c9-9.8,14.6-21.8,14.6-35.4c0-15,0-29.9,0-44.9c0-35.7,0-71.5,0-107.2c0-43.2,0-86.4,0-129.7
				c0-37.5,0-75,0-112.6c0-18.2,0.2-36.4,0-54.6c0-0.2,0-0.5,0-0.7c0-17.6-9.6-34.3-24.8-43.2c-15.9-9.3-34.5-8.5-50.5,0
				c-14.1,7.5-28.2,14.9-42.3,22.4c-33.9,17.9-67.7,35.8-101.6,53.7c-41.1,21.7-82.3,43.5-123.4,65.2
				c-35.4,18.7-70.9,37.5-106.3,56.2c-17.2,9.1-34.7,17.9-51.7,27.3c-0.2,0.1-0.5,0.3-0.7,0.4c-15.4,8.1-24.8,26.1-24.8,43.2
				c0,14.9,0,29.9,0,44.8c0,35.7,0,71.4,0,107.1c0,43.2,0,86.4,0,129.6c0,37.5,0,75,0,112.5c0,18.2-0.2,36.4,0,54.6
				c0,0.2,0,0.5,0,0.7c0,17.6,9.6,34.3,24.8,43.2c15.9,9.3,34.5,8.4,50.5,0c14.1-7.4,28.2-14.9,42.3-22.3
				c33.9-17.9,67.7-35.8,101.6-53.7c41.1-21.7,82.3-43.4,123.4-65.2c35.4-18.7,70.9-37.4,106.3-56.1c17.2-9.1,34.7-17.9,51.7-27.3
				c0.2-0.1,0.5-0.3,0.7-0.4c10.8-5.7,19.8-18.3,23-29.9c3.3-12,1.8-27.9-5-38.5C966.1,688.1,937.7,680.6,912.9,693.7z" fill="#ffffff" class="color000000 svgShape"></path>
  <path d="M912.9,244.1c-14.1,7.5-28.2,14.9-42.3,22.4c-33.9,17.9-67.7,35.8-101.6,53.7
				c-41.1,21.7-82.3,43.5-123.4,65.2c-35.4,18.7-70.9,37.5-106.3,56.2c-17.2,9.1-34.6,18-51.7,27.3c-0.2,0.1-0.5,0.3-0.7,0.4
				c16.8,0,33.6,0,50.5,0c-14.1-7.5-28.2-14.9-42.3-22.4c-33.9-17.9-67.7-35.8-101.6-53.7c-41.1-21.7-82.3-43.5-123.4-65.2
				c-35.4-18.7-70.9-37.5-106.3-56.2c-17.2-9.1-34.3-18.5-51.7-27.3c-0.2-0.1-0.5-0.3-0.7-0.4c0,28.8,0,57.6,0,86.3
				c14.1-7.4,28.2-14.9,42.3-22.3c33.9-17.9,67.7-35.8,101.6-53.7c41.1-21.7,82.3-43.5,123.4-65.2c35.4-18.7,70.9-37.4,106.3-56.2
				c17.2-9.1,34.6-18,51.7-27.3c0.2-0.1,0.5-0.3,0.7-0.4c-16.8,0-33.6,0-50.5,0c14.1,7.4,28.2,14.9,42.3,22.3
				c33.9,17.9,67.7,35.8,101.6,53.7c41.1,21.7,82.3,43.5,123.4,65.2c35.4,18.7,70.9,37.4,106.3,56.2c17.2,9.1,34.4,18.4,51.7,27.3
				c0.2,0.1,0.5,0.3,0.7,0.4c11.8,6.2,25.5,8.6,38.5,5c11.6-3.2,24.2-12.2,29.9-23c6.1-11.6,9.2-25.7,5-38.5
				c-3.9-12.1-11.4-23.8-23-29.9c-14.3-7.5-28.6-15.1-42.9-22.6c-34-17.9-67.9-35.9-101.9-53.8c-41.3-21.8-82.6-43.6-123.9-65.4
				c-35.3-18.7-70.6-37.3-105.9-56c-17-9-33.9-18.3-51-26.9c-10.4-5.3-20.7-7.8-32.4-6.2c-6.9,0.9-12.9,3-19.2,6.3
				c-1.9,1-3.7,2-5.6,2.9c-8.8,4.6-17.6,9.3-26.4,13.9c-32.1,17-64.3,34-96.4,50.9c-40.9,21.6-81.9,43.3-122.8,64.9
				c-37,19.5-73.9,39.1-110.9,58.6c-20.2,10.7-40.4,21.4-60.6,32c-0.9,0.5-1.9,1-2.8,1.5c-32.6,17.2-32.6,69.1,0,86.3
				c14.3,7.6,28.6,15.1,42.9,22.7c34,18,67.9,35.9,101.9,53.9c41.3,21.8,82.6,43.7,123.9,65.5c35.3,18.7,70.6,37.3,105.9,56
				c17,9,33.9,18.3,51,27c10.4,5.3,20.7,7.8,32.4,6.2c6.9-0.9,12.9-3,19.2-6.3c1.9-1,3.7-2,5.6-2.9c8.8-4.6,17.6-9.3,26.4-13.9
				c32.1-17,64.3-34,96.4-51c40.9-21.6,81.9-43.3,122.8-64.9c37-19.5,73.9-39.1,110.9-58.6c20.2-10.7,40.4-21.4,60.6-32.1
				c0.9-0.5,1.9-1,2.8-1.5c10.8-5.7,19.8-18.3,23-29.9c3.3-12,1.8-27.9-5-38.5C966.1,238.5,937.7,231,912.9,244.1z" fill="#ffffff" class="color000000 svgShape"></path>
  <path d="M324.2,443.2c14.1-7.5,28.2-14.9,42.3-22.4c33.9-17.9,67.7-35.8,101.6-53.7
				c41.1-21.7,82.3-43.5,123.4-65.2c35.4-18.7,70.9-37.5,106.3-56.2c17.2-9.1,34.7-17.9,51.7-27.3c0.2-0.1,0.5-0.3,0.7-0.4
				c10.8-5.7,19.8-18.3,23-29.9c3.3-12,1.8-27.9-5-38.5c-15.2-23.6-43.6-31-68.4-17.9c-14.1,7.5-28.2,14.9-42.3,22.4
				c-33.9,17.9-67.7,35.8-101.6,53.7c-41.1,21.7-82.3,43.5-123.4,65.2c-35.4,18.7-70.9,37.5-106.3,56.2
				c-17.2,9.1-34.7,17.9-51.7,27.3c-0.2,0.1-0.5,0.3-0.7,0.4c-10.8,5.7-19.8,18.3-23,29.9c-3.3,12-1.8,27.9,5,38.5
				C270.9,448.8,299.4,456.3,324.2,443.2L324.2,443.2z" fill="#ffffff" class="color000000 svgShape"></path>
</svg>