<svg width="18" height="18" viewBox="0 0 18 18" fill="none" xmlns="http://www.w3.org/2000/svg">
<path d="M9.00007 -7.62939e-05C8.06321 -7.62939e-05 7.14739 0.277734 6.36842 0.798224C5.58946 1.31871 4.98233 2.05851 4.62381 2.92405C4.26529 3.78959 4.17148 4.74201 4.35425 5.66087C4.53702 6.57972 4.98816 7.42374 5.65062 8.0862C6.31308 8.74866 7.1571 9.1998 8.07596 9.38257C8.99481 9.56534 9.94723 9.47154 10.8128 9.11302C11.6783 8.7545 12.4181 8.14737 12.9386 7.3684C13.4591 6.58943 13.7369 5.67361 13.7369 4.73676C13.7369 3.48047 13.2378 2.27564 12.3495 1.38731C11.4612 0.498981 10.2564 -7.62939e-05 9.00007 -7.62939e-05ZM9.00007 7.57886C8.43795 7.57886 7.88846 7.41217 7.42108 7.09987C6.9537 6.78758 6.58942 6.34371 6.37431 5.82438C6.1592 5.30505 6.10292 4.7336 6.21258 4.18229C6.32224 3.63098 6.59293 3.12456 6.9904 2.72709C7.38787 2.32961 7.89429 2.05893 8.4456 1.94927C8.99691 1.8396 9.56837 1.89589 10.0877 2.111C10.607 2.32611 11.0509 2.69039 11.3632 3.15777C11.6755 3.62515 11.8422 4.17464 11.8422 4.73676C11.8422 5.49053 11.5427 6.21343 11.0097 6.74642C10.4767 7.27942 9.75384 7.57886 9.00007 7.57886ZM17.5264 17.9999V17.0525C17.5264 15.2937 16.8277 13.607 15.584 12.3633C14.3404 11.1196 12.6536 10.421 10.8948 10.421H7.10534C5.34653 10.421 3.65977 11.1196 2.41611 12.3633C1.17245 13.607 0.47377 15.2937 0.47377 17.0525V17.9999H2.3685V17.0525C2.3685 15.7962 2.86756 14.5914 3.75589 13.7031C4.64422 12.8147 5.84905 12.3157 7.10534 12.3157H10.8948C12.1511 12.3157 13.3559 12.8147 14.2442 13.7031C15.1326 14.5914 15.6316 15.7962 15.6316 17.0525V17.9999H17.5264Z" fill="url(#paint0_linear_1_134)"/>
<defs>
<linearGradient id="paint0_linear_1_134" x1="9.00007" y1="-7.62939e-05" x2="9.00007" y2="17.9999" gradientUnits="userSpaceOnUse">
<stop stop-color="#95267C"/>
<stop offset="1" stop-color="#D7176C"/>
</linearGradient>
</defs>
</svg>
