<svg width="6" height="22" viewBox="0 0 6 22" fill="none" xmlns="http://www.w3.org/2000/svg">
<path d="M5.25317 3.17333C5.25317 4.4399 4.22641 5.46666 2.95984 5.46666C1.69327 5.46666 0.666504 4.4399 0.666504 3.17333C0.666504 1.90676 1.69327 0.879997 2.95984 0.879997C4.22641 0.879997 5.25317 1.90676 5.25317 3.17333Z" fill="#888888"/>
<path d="M5.25317 11.2C5.25317 12.4666 4.22641 13.4933 2.95984 13.4933C1.69327 13.4933 0.666504 12.4666 0.666504 11.2C0.666504 9.93343 1.69327 8.90666 2.95984 8.90666C4.22641 8.90666 5.25317 9.93343 5.25317 11.2Z" fill="#888888"/>
<path d="M2.95984 21.52C4.22641 21.52 5.25317 20.4932 5.25317 19.2267C5.25317 17.9601 4.22641 16.9333 2.95984 16.9333C1.69327 16.9333 0.666504 17.9601 0.666504 19.2267C0.666504 20.4932 1.69327 21.52 2.95984 21.52Z" fill="#888888"/>
</svg>
