<svg width="27" height="21" viewBox="0 0 27 21" fill="none" xmlns="http://www.w3.org/2000/svg">
<path d="M13.1177 13.4054C14.8044 13.4054 16.1717 12.0374 16.1717 10.35C16.1717 8.66256 14.8044 7.2946 13.1177 7.2946C11.431 7.2946 10.0637 8.66256 10.0637 10.35C10.0637 12.0374 11.431 13.4054 13.1177 13.4054Z" fill="#888888"/>
<path fill-rule="evenodd" clip-rule="evenodd" d="M1.80005 10.35C3.96452 6.38761 8.16857 3.7 13 3.7C17.8315 3.7 22.0356 6.38761 24.2 10.35C22.0356 14.3124 17.8315 17 13 17C8.16857 17 3.96452 14.3124 1.80005 10.35ZM17.9681 10.35C17.9681 13.0301 15.7965 15.2027 13.1177 15.2027C10.4389 15.2027 8.26728 13.0301 8.26728 10.35C8.26728 7.66992 10.4389 5.4973 13.1177 5.4973C15.7965 5.4973 17.9681 7.66992 17.9681 10.35Z" fill="#888888"/>
</svg>
