<svg width="64" height="50" viewBox="0 0 64 50" fill="none" xmlns="http://www.w3.org/2000/svg">
<path d="M28.1723 8.66531C28.1723 6.69915 29.7662 5.10526 31.7324 5.10526C33.6986 5.10526 35.2924 6.69915 35.2924 8.66531V9.97216H41.1958V14.7489C41.1958 16.3667 39.8844 17.6781 38.2666 17.6781H25.1981C23.5804 17.6781 22.269 16.3667 22.269 14.7489V9.97216H28.1723V8.66531Z" fill="currentColor"/>
<path fill-rule="evenodd" clip-rule="evenodd" d="M19.475 9.97216H18.1681C15.53 9.97216 13.3914 12.1108 13.3914 14.7489V40.7058C13.3914 43.3439 15.53 45.4825 18.1681 45.4825H45.2966C47.9348 45.4825 50.0734 43.3439 50.0734 40.7058V14.7489C50.0734 12.1108 47.9348 9.97216 45.2966 9.97216H43.9898V14.7489C43.9898 17.9097 41.4275 20.4721 38.2666 20.4721H25.1981C22.0373 20.4721 19.475 17.9097 19.475 14.7489V9.97216ZM20.8721 26.9161C20.8721 25.9703 21.6388 25.2036 22.5845 25.2036H40.8805C41.8262 25.2036 42.5929 25.9703 42.5929 26.9161C42.5929 27.8618 41.8262 28.6285 40.8805 28.6285H22.5845C21.6388 28.6285 20.8721 27.8618 20.8721 26.9161ZM20.872 33.135C20.872 32.1892 21.6387 31.4226 22.5845 31.4226H40.8804C41.8262 31.4226 42.5928 32.1892 42.5928 33.135C42.5928 34.0807 41.8262 34.8474 40.8804 34.8474H22.5845C21.6387 34.8474 20.872 34.0807 20.872 33.135ZM20.872 39.3538C20.872 38.4081 21.6387 37.6414 22.5845 37.6414H40.8804C41.8262 37.6414 42.5928 38.4081 42.5928 39.3538C42.5928 40.2996 41.8262 41.0663 40.8804 41.0663H22.5845C21.6387 41.0663 20.872 40.2996 20.872 39.3538Z" fill="currentColor"/>
</svg>
